<svg xmlns:dc="http://purl.org/dc/elements/1.1/" xmlns:cc="http://creativecommons.org/ns#" xmlns:rdf="http://www.w3.org/1999/02/22-rdf-syntax-ns#" xmlns:svg="http://www.w3.org/2000/svg" xmlns="http://www.w3.org/2000/svg" xmlns:sodipodi="http://sodipodi.sourceforge.net/DTD/sodipodi-0.dtd" xmlns:inkscape="http://www.inkscape.org/namespaces/inkscape" version="1.1" x="0px" y="0px" viewBox="0 0 100 125"><g transform="translate(0,-952.36218)"><path style="font-size:medium;font-style:normal;font-variant:normal;font-weight:normal;font-stretch:normal;text-indent:0;text-align:start;text-decoration:none;line-height:normal;letter-spacing:normal;word-spacing:normal;text-transform:none;direction:ltr;block-progression:tb;writing-mode:lr-tb;text-anchor:start;baseline-shift:baseline;opacity:1;color:#000000;fill:#000000;fill-opacity:1;stroke:none;stroke-width:6.57957554000000040;marker:none;visibility:visible;display:inline;overflow:visible;enable-background:accumulate;font-family:Sans;-inkscape-font-specification:Sans" d="M 50 5 C 25.182719 5 5 25.18276 5 50 C 5 74.8173 25.182719 95 50 95 C 74.817282 95 95 74.8173 95 50 C 95 25.18276 74.817282 5 50 5 z M 50 11 C 71.574638 11 89 28.4254 89 50 C 89 71.5747 71.574638 89 50 89 C 28.425363 89 11 71.5747 11 50 C 11 28.4254 28.425363 11 50 11 z M 49 29 C 46.790861 29 45 30.790863 45 33 C 45 35.209137 46.790861 37 49 37 C 51.209139 37 53 35.209137 53 33 C 53 30.790863 51.209139 29 49 29 z M 44.6875 39 A 3.0040663 3.0040663 0 1 0 45 45 L 47 45 L 47 65 L 45 65 A 3.0003 3.0003 0 0 0 44.6875 65 A 3.0040663 3.0040663 0 1 0 45 71 L 55 71 A 3.0003 3.0003 0 1 0 55 65 L 53 65 L 53 42 A 3.0003 3.0003 0 0 0 50 39 L 45 39 A 3.0003 3.0003 0 0 0 44.6875 39 z " transform="translate(0,952.36218)"/></g><text x="0" y="115" fill="#000000" font-size="5px" font-weight="bold" font-family="'Helvetica Neue', Helvetica, Arial-Unicode, Arial, Sans-serif">Created by joe pictos</text><text x="0" y="120" fill="#000000" font-size="5px" font-weight="bold" font-family="'Helvetica Neue', Helvetica, Arial-Unicode, Arial, Sans-serif">from the Noun Project</text></svg>